<?xml version="1.0" encoding="utf-8"?>
<!-- Generator: Adobe Illustrator 24.1.2, SVG Export Plug-In . SVG Version: 6.00 Build 0)  -->
<svg version="1.1" xmlns="http://www.w3.org/2000/svg" xmlns:xlink="http://www.w3.org/1999/xlink" x="0px" y="0px"
	 viewBox="0 0 500 500" style="enable-background:new 0 0 500 500;" xml:space="preserve">
<style type="text/css">
	.st0{display:none;}
	.st1{display:inline;fill:#FF0000;}
	.st2{display:inline;fill:#E69191;}
	.st3{display:inline;}
	.st4{display:inline;fill:#AABABC;}
	.st5{display:inline;fill:#5C4637;}
	.st6{display:inline;fill:#C97F7F;}
	.st7{fill:#251E48;}
	.st8{fill:#554B8A;}
	.st9{fill:#2B235A;}
	.st10{fill:#5B4D91;}
	.st11{fill:#FFFFFF;}
	.st12{fill:#FF4B52;}
	.st13{fill:#F8F6E1;}
	.st14{fill:#F5F5F2;}
	.st15{fill:#D6D7C4;}
	.st16{fill:#804B78;}
	.st17{fill:#485073;}
	.st18{fill:#6E7791;}
	.st19{fill:#2D323A;}
	.st20{fill:#39363D;}
	.st21{fill:#513830;}
	.st22{fill:#74564F;}
</style>
<g id="Слой_1" class="st0">
	
		<image style="display:inline;overflow:visible;opacity:0.61;" width="30" height="30" xlink:href="../Downloads/hp1.png"  transform="matrix(16.2097 0 0 16.2097 18.6742 -4.6483)">
	</image>
	
		<image style="display:inline;overflow:visible;" width="30" height="30" xlink:href="../Downloads/hp1.png"  transform="matrix(16.2097 0 0 16.2097 434.2781 -8.9256)">
	</image>
</g>
<g id="Слой_3" class="st0">
	<rect x="213.2" y="238.6" class="st1" width="16.2" height="16.2"/>
	<rect x="229.4" y="254.8" class="st1" width="16.2" height="16.2"/>
	<rect x="245.6" y="254.8" class="st1" width="16.2" height="16.2"/>
	<rect x="245.6" y="238.6" class="st1" width="16.2" height="16.2"/>
	<rect x="261.8" y="254.8" class="st1" width="16.2" height="16.2"/>
	<rect x="278" y="254.8" class="st1" width="16.2" height="16.2"/>
	<rect x="278" y="238.6" class="st1" width="16.2" height="16.2"/>
	<rect x="261.8" y="238.6" class="st1" width="16.2" height="16.2"/>
	<rect x="261.8" y="287.1" class="st1" width="16.2" height="16.2"/>
	<rect x="261.8" y="270.9" class="st1" width="16.2" height="16.2"/>
	<rect x="278" y="287.1" class="st1" width="16.2" height="16.2"/>
	<rect x="294.2" y="287.1" class="st1" width="16.2" height="16.2"/>
	<rect x="294.2" y="271" class="st1" width="16.2" height="16.2"/>
	<rect x="278" y="270.9" class="st1" width="16.2" height="16.2"/>
	<rect x="213.2" y="287.1" class="st1" width="16.2" height="16.2"/>
	<rect x="213.2" y="270.9" class="st1" width="16.2" height="16.2"/>
	<rect x="197" y="287.1" class="st1" width="16.2" height="16.2"/>
	<rect x="197" y="270.9" class="st1" width="16.2" height="16.2"/>
	<rect x="229.4" y="287.1" class="st1" width="16.2" height="16.2"/>
	<rect x="245.6" y="287.1" class="st1" width="16.2" height="16.2"/>
	<rect x="261.8" y="303.4" class="st1" width="16.2" height="16.2"/>
	<rect x="278" y="303.4" class="st1" width="16.2" height="16.2"/>
	<rect x="213.2" y="303.3" class="st1" width="16.2" height="16.2"/>
	<rect x="229.4" y="303.4" class="st1" width="16.2" height="16.2"/>
	<rect x="245.6" y="303.4" class="st1" width="16.2" height="16.2"/>
	<rect x="245.6" y="270.9" class="st1" width="16.2" height="16.2"/>
	<rect x="229.4" y="270.9" class="st1" width="16.2" height="16.2"/>
	<rect x="197" y="238.6" class="st2" width="16.2" height="16.2"/>
	<rect x="197" y="222.4" class="st3" width="16.2" height="16.2"/>
	<rect x="294.2" y="222.4" class="st3" width="16.2" height="16.2"/>
	<rect x="310.4" y="287.1" class="st3" width="16.2" height="16.2"/>
	<rect x="213.2" y="206.3" class="st3" width="16.2" height="16.2"/>
	<rect x="213.2" y="190.1" class="st3" width="16.2" height="16.2"/>
	<rect x="197" y="173.9" class="st3" width="16.2" height="16.2"/>
	<rect x="197" y="157.7" class="st3" width="16.2" height="16.2"/>
	<rect x="294.2" y="173.9" class="st3" width="16.2" height="16.2"/>
	<rect x="294.2" y="157.7" class="st3" width="16.2" height="16.2"/>
	<rect x="278" y="206.3" class="st3" width="16.2" height="16.2"/>
	<rect x="278" y="190.1" class="st3" width="16.2" height="16.2"/>
	<rect x="197" y="141.5" class="st3" width="16.2" height="16.2"/>
	<rect x="213.2" y="141.5" class="st3" width="16.2" height="16.2"/>
	<rect x="229.4" y="141.5" class="st3" width="16.2" height="16.2"/>
	<rect x="245.6" y="141.5" class="st3" width="16.2" height="16.2"/>
	<rect x="261.8" y="141.6" class="st3" width="16.2" height="16.2"/>
	<rect x="278" y="141.6" class="st3" width="16.2" height="16.2"/>
	<rect x="213.2" y="319.5" class="st3" width="16.2" height="16.2"/>
	<rect x="197" y="303.2" class="st3" width="16.2" height="16.2"/>
	<rect x="294.2" y="303.4" class="st3" width="16.2" height="16.2"/>
	<rect x="229.4" y="319.5" class="st3" width="16.2" height="16.2"/>
	<rect x="245.6" y="319.5" class="st3" width="16.2" height="16.2"/>
	<rect x="261.8" y="319.5" class="st3" width="16.2" height="16.2"/>
	<rect x="278" y="319.5" class="st3" width="16.2" height="16.2"/>
	<rect x="294.2" y="141.5" class="st3" width="16.2" height="16.2"/>
	<rect x="310.4" y="271" class="st3" width="16.2" height="16.2"/>
	<rect x="310.4" y="254.8" class="st3" width="16.2" height="16.2"/>
	<rect x="310.4" y="238.6" class="st3" width="16.2" height="16.2"/>
	<rect x="180.8" y="287" class="st3" width="16.2" height="16.2"/>
	<rect x="180.8" y="270.9" class="st3" width="16.2" height="16.2"/>
	<rect x="180.8" y="254.8" class="st3" width="16.2" height="16.2"/>
	<rect x="180.8" y="238.5" class="st3" width="16.2" height="16.2"/>
	<rect x="213.2" y="254.8" class="st2" width="16.2" height="16.2"/>
	<rect x="197" y="254.8" class="st2" width="16.2" height="16.2"/>
	<rect x="229.4" y="222.4" class="st2" width="16.2" height="16.2"/>
	<rect x="213.2" y="222.4" class="st2" width="16.2" height="16.2"/>
	<rect x="229.4" y="238.6" class="st2" width="16.2" height="16.2"/>
	<rect x="245.6" y="206.3" class="st2" width="16.2" height="16.2"/>
	<rect x="229.4" y="206.3" class="st2" width="16.2" height="16.2"/>
	<rect x="245.6" y="222.4" class="st2" width="16.2" height="16.2"/>
	<rect x="261.8" y="222.4" class="st2" width="16.2" height="16.2"/>
	<rect x="261.8" y="206.3" class="st2" width="16.2" height="16.2"/>
	<rect x="245.6" y="190.1" class="st4" width="16.2" height="16.2"/>
	<rect x="229.4" y="190.1" class="st4" width="16.2" height="16.2"/>
	<rect x="261.8" y="190.1" class="st4" width="16.2" height="16.2"/>
	<rect x="229.4" y="173.9" class="st4" width="16.2" height="16.2"/>
	<rect x="213.2" y="173.9" class="st4" width="16.2" height="16.2"/>
	<rect x="245.6" y="173.9" class="st4" width="16.2" height="16.2"/>
	<rect x="261.8" y="173.9" class="st4" width="16.2" height="16.2"/>
	<rect x="278" y="173.9" class="st4" width="16.2" height="16.2"/>
	<rect x="229.4" y="157.7" class="st5" width="16.2" height="16.2"/>
	<rect x="213.2" y="157.7" class="st5" width="16.2" height="16.2"/>
	<rect x="245.6" y="157.7" class="st5" width="16.2" height="16.2"/>
	<rect x="261.8" y="157.7" class="st5" width="16.2" height="16.2"/>
	<rect x="278" y="157.7" class="st5" width="16.2" height="16.2"/>
	<rect x="294.2" y="254.8" class="st6" width="16.2" height="16.2"/>
	<rect x="294.2" y="238.6" class="st6" width="16.2" height="16.2"/>
	<rect x="278" y="222.4" class="st2" width="16.2" height="16.2"/>
	<rect x="-58.8" y="190.1" class="st1" width="16.2" height="16.2"/>
</g>
<g id="Слой_4" class="st0">
	<g class="st3">
		<path d="M176.2,172h52 M297.6,172h52 M124.2,189.3h34.7 M176.2,189.3h156.1 M349.6,189.3h52 M124.2,206.7h17.3 M158.9,206.7h34.7
			 M314.9,206.7h34.7 M384.3,206.7h17.3 M124.2,224h17.3 M176.2,224h17.3 M314.9,224h17.3 M384.3,224h17.3 M124.2,241.3h17.3
			 M176.2,241.3h17.3 M314.9,241.3h17.3 M384.3,241.3h17.3 M124.2,258.7h17.3 M384.3,258.7h17.3 M124.2,276h17.3 M176.2,276h17.3
			 M314.9,276h34.7 M384.3,276h17.3 M124.2,293.4h17.3 M158.9,293.4h17.3 M193.5,293.4h17.3 M297.6,293.4h17.3 M349.6,293.4h17.3
			 M384.3,293.4h17.3 M124.2,310.7h34.7 M193.5,310.7h121.4 M366.9,310.7h34.7 M124.2,328h17.3 M384.3,328h17.3"/>
		<path d="M401.6,336.7h-17.3v-17.3h-17.3V302h-17.3v-17.3h-34.7v-17.3h34.7v17.3h17.3V302h17.3V198h-34.7v-17.3h-17.3V198h17.3
			v17.3h-17.3V250h-17.3v-52H193.5v52h-17.3v-34.7h-17.3V198h-17.3v104h17.3v17.3h-17.3v17.3h-17.3V180.6h34.7V198h17.3v-34.7h52
			v17.3h69.4v-17.3h52v17.3h52V336.7z M314.9,319.4H193.5v-34.7h-17.3v-17.3h17.3v17.3h17.3V302h86.7v-17.3h17.3V319.4z M176.2,302
			h-17.3v-17.3h17.3V302z"/>
	</g>
	<g class="st3">
		<path d="M141.5,206.7h17.3 M141.5,224h34.7 M141.5,241.3h34.7 M141.5,258.7h34.7 M141.5,276h34.7 M141.5,293.4h17.3"/>
		<polygon class="st7" points="158.9,302 141.5,302 141.5,198 158.9,198 158.9,215.3 176.2,215.3 176.2,284.7 158.9,284.7 		"/>
	</g>
	<g class="st3">
		<path d="M193.5,206.7h17.3 M262.9,206.7h34.7"/>
		<path class="st8" d="M297.6,215.3h-34.7V198h34.7V215.3z M210.9,215.3h-17.3V198h17.3V215.3z"/>
	</g>
	<g class="st3">
		<path d="M210.9,206.7h52 M297.6,206.7h17.3 M210.9,224h52 M297.6,224h17.3 M210.9,241.3h52 M297.6,241.3h17.3 M176.2,258.7h138.7
			 M193.5,276h17.3 M280.2,276h34.7 M280.2,293.4h17.3"/>
		<polygon class="st9" points="297.6,302 280.2,302 280.2,267.3 210.9,267.3 210.9,284.7 193.5,284.7 193.5,267.3 176.2,267.3 
			176.2,250 210.9,250 210.9,198 262.9,198 262.9,250 297.6,250 297.6,198 314.9,198 314.9,284.7 297.6,284.7 		"/>
	</g>
	<g class="st3">
		<path d="M349.6,206.7h34.7 M332.3,224h52 M332.3,241.3h52 M314.9,258.7h69.4 M349.6,276h34.7 M366.9,293.4h17.3"/>
		<polygon class="st10" points="384.3,302 366.9,302 366.9,284.7 349.6,284.7 349.6,267.3 314.9,267.3 314.9,250 332.3,250 
			332.3,215.3 349.6,215.3 349.6,198 384.3,198 		"/>
	</g>
	<g class="st3">
		<path d="M193.5,224h17.3 M262.9,224h34.7 M193.5,241.3h17.3 M262.9,241.3h34.7 M210.9,276h17.3 M262.9,276h17.3"/>
		<path class="st11" d="M280.2,284.7h-17.3v-17.3h17.3V284.7z M228.2,284.7h-17.3v-17.3h17.3V284.7z M297.6,250h-34.7v-34.7h34.7
			V250z M210.9,250h-17.3v-34.7h17.3V250z"/>
	</g>
	<g class="st3">
		<path d="M228.2,276h34.7 M210.9,293.4h69.4"/>
		<polygon class="st12" points="280.2,302 210.9,302 210.9,284.7 228.2,284.7 228.2,267.3 262.9,267.3 262.9,284.7 280.2,284.7 		
			"/>
	</g>
</g>
<g id="Слой_5" class="st0">
	<g class="st3">
		<path d="M164.7,139.2h170.5 M164.7,156.2h17.1 M318.2,156.2h17.1 M164.7,173.3h17.1 M318.2,173.3h17.1 M164.7,190.3h34.1
			 M250,190.3h34.1 M318.2,190.3h17.1 M164.7,207.4h34.1 M250,207.4h34.1 M318.2,207.4h17.1 M164.7,224.4h17.1 M215.9,224.4h17.1
			 M318.2,224.4h17.1 M164.7,241.5h17.1 M318.2,241.5h17.1 M164.7,258.5h17.1 M318.2,258.5h17.1 M164.7,275.6h68.2 M267,275.6h68.2
			 M215.9,292.6h17.1 M267,292.6h17.1 M198.8,309.7h34.1 M267,309.7h34.1 M181.8,326.7h34.1 M284.1,326.7h34.1 M181.8,343.8h17.1
			 M215.9,343.8h68.2 M301.2,343.8h17.1 M181.8,360.8h51.2 M267,360.8h51.2"/>
		<path d="M318.2,369.4h-51.2v-17.1H233v17.1h-51.2v-51.2h17.1v-17.1h17.1v-17.1h-51.2V130.6h170.5v153.5h-51.2v17.1h17.1v17.1h17.1
			V369.4z M284.1,352.3h17.1v-17.1h-17.1v-17.1h-17.1v-51.2h51.2V147.7H181.8v34.1h17.1v34.1h-17.1v51.2H233v51.2h-17.1v17.1h68.2
			V352.3z M198.8,352.3h17.1v-17.1h-17.1V352.3z M233,232.9h-17.1v-17.1H233V232.9z M284.1,215.9H250v-34.1h34.1V215.9z"/>
	</g>
	<g class="st3">
		<path d="M181.8,156.2h119.4 M181.8,173.3h119.4 M198.8,190.3H250 M284.1,190.3h17.1 M198.8,207.4H250 M284.1,207.4h17.1
			 M198.8,224.4h17.1 M232.9,224.4H250 M284.1,224.4h17.1 M181.8,241.5h119.4 M181.8,258.5h119.4 M232.9,292.6H267 M232.9,309.7H267
			 M215.9,326.7h68.2 M198.8,343.8h17.1 M284.1,343.8h17.1"/>
		<path class="st13" d="M301.2,352.3h-17.1v-17.1h-68.2v-17.1H233v-34.1h34.1v34.1h17.1v17.1h17.1V352.3z M215.9,352.3h-17.1v-17.1
			h17.1V352.3z M301.2,267.1H181.8v-34.1h17.1v-51.2h-17.1v-34.1h119.4V267.1z M250,232.9h34.1v-51.2H250V232.9z M215.9,232.9H233
			v-17.1h-17.1V232.9z"/>
	</g>
	<g class="st3">
		<path d="M301.2,156.2h17.1 M301.2,173.3h17.1 M301.2,190.3h17.1 M301.2,207.4h17.1 M301.2,224.4h17.1 M301.2,241.5h17.1
			 M301.2,258.5h17.1"/>
		<rect x="301.2" y="147.7" class="st14" width="17.1" height="119.4"/>
	</g>
	<g class="st3">
		<path d="M181.8,224.4h17.1 M250,224.4h34.1 M232.9,275.6H267"/>
		<path class="st15" d="M267.1,284.1H233v-17.1h34.1V284.1z M284.1,232.9H250v-17.1h34.1V232.9z M198.8,232.9h-17.1v-17.1h17.1
			V232.9z"/>
	</g>
</g>
<g id="Слой_6">
	<g>
		<path d="M166.5,127.3h33.4 M300.1,127.3h33.4 M166.5,144h16.7 M316.8,144h16.7 M166.5,160.7h16.7 M316.8,160.7h16.7 M166.5,177.4
			h33.4 M233.3,177.4h33.4 M316.8,177.4h16.7 M166.5,194.1h33.4 M233.3,194.1h33.4 M316.8,194.1h16.7 M166.5,210.8h16.7
			 M316.8,210.8h16.7 M166.5,227.5h66.8 M316.8,227.5h16.7 M183.2,244.2H250 M316.8,244.2h16.7 M166.5,260.8h100.2 M316.8,260.8
			h16.7 M166.5,277.5h16.7 M316.8,277.5h16.7 M166.5,294.2h16.7 M316.8,294.2h16.7 M166.5,310.9h16.7 M316.8,310.9h16.7
			 M166.5,327.6h16.7 M316.8,327.6h16.7 M166.5,344.3h16.7 M199.9,344.3h100.2 M316.8,344.3h16.7 M166.5,361h50.1 M283.4,361h50.1"
			/>
		<path d="M333.5,369.4h-50.1v-16.7h-66.8v16.7h-50.1V252.5h16.7v-16.7h-16.7V118.9h33.4v16.7h-16.7V169h16.7v33.4h-16.7v16.7h50.1
			v16.7H250v16.7h16.7v16.7h-83.5v83.5h16.7V336h100.2v16.7h16.7v-217h-16.7v-16.7h33.4V369.4z M266.7,202.4h-33.4V169h33.4V202.4z"
			/>
	</g>
	<g>
		<path d="M199.9,127.3h16.7 M283.4,127.3h16.7 M199.9,144h100.2 M199.9,160.7h83.5 M216.6,177.4h16.7 M266.7,177.4h16.7
			 M216.6,194.1h16.7"/>
		<polygon class="st16" points="233.3,202.4 216.6,202.4 216.6,169 199.9,169 199.9,118.9 216.6,118.9 216.6,135.6 283.4,135.6 
			283.4,118.9 300.1,118.9 300.1,152.3 283.4,152.3 283.4,185.7 266.7,185.7 266.7,169 233.3,169 		"/>
	</g>
	<g>
		<path d="M183.2,144h16.7 M183.2,160.7h16.7 M283.4,160.7h16.7 M199.9,177.4h16.7 M283.4,177.4h16.7 M199.9,194.1h16.7
			 M266.7,194.1h33.4 M183.2,210.8h116.9 M233.3,227.5h66.8 M250,244.2h50.1 M266.7,260.8h33.4 M183.2,277.5h116.9"/>
		<polygon class="st17" points="300.1,285.9 183.2,285.9 183.2,269.2 266.7,269.2 266.7,252.5 250,252.5 250,235.8 233.3,235.8 
			233.3,219.1 183.2,219.1 183.2,202.4 199.9,202.4 199.9,169 183.2,169 183.2,135.6 199.9,135.6 199.9,169 216.6,169 216.6,202.4 
			266.7,202.4 266.7,185.7 283.4,185.7 283.4,152.3 300.1,152.3 		"/>
	</g>
	<g>
		<path d="M300.1,144h16.7 M300.1,160.7h16.7 M300.1,177.4h16.7 M300.1,194.1h16.7 M300.1,210.8h16.7 M300.1,227.5h16.7
			 M300.1,244.2h16.7 M300.1,260.8h16.7 M300.1,277.5h16.7"/>
		<rect x="300.1" y="135.6" class="st18" width="16.7" height="150.2"/>
	</g>
	<g>
		<path d="M183.2,294.2h116.9"/>
		<rect x="183.2" y="285.9" class="st19" width="116.9" height="16.7"/>
	</g>
	<g>
		<path d="M300.1,294.2h16.7"/>
		<rect x="300.1" y="285.9" class="st20" width="16.7" height="16.7"/>
	</g>
	<g>
		<path d="M183.2,310.9h116.9 M183.2,327.6h116.9 M183.2,344.3h16.7"/>
		<polygon class="st21" points="199.9,352.7 183.2,352.7 183.2,302.6 300.1,302.6 300.1,336 199.9,336 		"/>
	</g>
	<g>
		<path d="M300.1,310.9h16.7 M300.1,327.6h16.7 M300.1,344.3h16.7"/>
		<rect x="300.1" y="302.6" class="st22" width="16.7" height="50.1"/>
	</g>
</g>
</svg>
