<?xml version="1.0" encoding="utf-8"?>
<!-- Generator: Adobe Illustrator 24.1.2, SVG Export Plug-In . SVG Version: 6.00 Build 0)  -->
<svg version="1.1" xmlns="http://www.w3.org/2000/svg" xmlns:xlink="http://www.w3.org/1999/xlink" x="0px" y="0px"
	 viewBox="0 0 500 500" style="enable-background:new 0 0 500 500;" xml:space="preserve">
<style type="text/css">
	.st0{display:none;}
	.st1{display:inline;fill:#FF0000;}
	.st2{display:inline;fill:#E69191;}
	.st3{display:inline;}
	.st4{display:inline;fill:#AABABC;}
	.st5{display:inline;fill:#5C4637;}
	.st6{display:inline;fill:#C97F7F;}
	.st7{fill:#251E48;}
	.st8{fill:#554B8A;}
	.st9{fill:#2B235A;}
	.st10{fill:#5B4D91;}
	.st11{fill:#FFFFFF;}
	.st12{fill:#FF4B52;}
	.st13{fill:#F8F6E1;}
	.st14{fill:#F5F5F2;}
	.st15{fill:#D6D7C4;}
	.st16{fill:#804B78;}
	.st17{fill:#485073;}
	.st18{fill:#6E7791;}
	.st19{fill:#2D323A;}
	.st20{fill:#39363D;}
	.st21{fill:#513830;}
	.st22{fill:#74564F;}
	.st23{fill:#634433;}
	.st24{fill:#A5BBBD;}
	.st25{fill:#FA9F9F;}
	.st26{fill:#FF070E;}
	.st27{display:inline;fill:#FFFFFF;}
	.st28{fill:#CE0B35;}
	.st29{fill:#F54D56;}
	.st30{fill:#FFC047;}
	.st31{fill:#F7EA88;}
	.st32{fill:#BA6700;}
	.st33{fill:#FFA800;}
</style>
<g id="Слой_1" class="st0">
	
		<image style="display:inline;overflow:visible;opacity:0.61;" width="30" height="30" xlink:href="../Downloads/hp1.png"  transform="matrix(16.2097 0 0 16.2097 18.6742 -4.6483)">
	</image>
	
		<image style="display:inline;overflow:visible;" width="30" height="30" xlink:href="../Downloads/hp1.png"  transform="matrix(16.2097 0 0 16.2097 434.2781 -8.9256)">
	</image>
</g>
<g id="Слой_3" class="st0">
	<rect x="213.2" y="238.6" class="st1" width="16.2" height="16.2"/>
	<rect x="229.4" y="254.8" class="st1" width="16.2" height="16.2"/>
	<rect x="245.6" y="254.8" class="st1" width="16.2" height="16.2"/>
	<rect x="245.6" y="238.6" class="st1" width="16.2" height="16.2"/>
	<rect x="261.8" y="254.8" class="st1" width="16.2" height="16.2"/>
	<rect x="278" y="254.8" class="st1" width="16.2" height="16.2"/>
	<rect x="278" y="238.6" class="st1" width="16.2" height="16.2"/>
	<rect x="261.8" y="238.6" class="st1" width="16.2" height="16.2"/>
	<rect x="261.8" y="287.1" class="st1" width="16.2" height="16.2"/>
	<rect x="261.8" y="270.9" class="st1" width="16.2" height="16.2"/>
	<rect x="278" y="287.1" class="st1" width="16.2" height="16.2"/>
	<rect x="294.2" y="287.1" class="st1" width="16.2" height="16.2"/>
	<rect x="294.2" y="271" class="st1" width="16.2" height="16.2"/>
	<rect x="278" y="270.9" class="st1" width="16.2" height="16.2"/>
	<rect x="213.2" y="287.1" class="st1" width="16.2" height="16.2"/>
	<rect x="213.2" y="270.9" class="st1" width="16.2" height="16.2"/>
	<rect x="197" y="287.1" class="st1" width="16.2" height="16.2"/>
	<rect x="197" y="270.9" class="st1" width="16.2" height="16.2"/>
	<rect x="229.4" y="287.1" class="st1" width="16.2" height="16.2"/>
	<rect x="245.6" y="287.1" class="st1" width="16.2" height="16.2"/>
	<rect x="261.8" y="303.4" class="st1" width="16.2" height="16.2"/>
	<rect x="278" y="303.4" class="st1" width="16.2" height="16.2"/>
	<rect x="213.2" y="303.3" class="st1" width="16.2" height="16.2"/>
	<rect x="229.4" y="303.4" class="st1" width="16.2" height="16.2"/>
	<rect x="245.6" y="303.4" class="st1" width="16.2" height="16.2"/>
	<rect x="245.6" y="270.9" class="st1" width="16.2" height="16.2"/>
	<rect x="229.4" y="270.9" class="st1" width="16.2" height="16.2"/>
	<rect x="197" y="238.6" class="st2" width="16.2" height="16.2"/>
	<rect x="197" y="222.4" class="st3" width="16.2" height="16.2"/>
	<rect x="294.2" y="222.4" class="st3" width="16.2" height="16.2"/>
	<rect x="310.4" y="287.1" class="st3" width="16.2" height="16.2"/>
	<rect x="213.2" y="206.3" class="st3" width="16.2" height="16.2"/>
	<rect x="213.2" y="190.1" class="st3" width="16.2" height="16.2"/>
	<rect x="197" y="173.9" class="st3" width="16.2" height="16.2"/>
	<rect x="197" y="157.7" class="st3" width="16.2" height="16.2"/>
	<rect x="294.2" y="173.9" class="st3" width="16.2" height="16.2"/>
	<rect x="294.2" y="157.7" class="st3" width="16.2" height="16.2"/>
	<rect x="278" y="206.3" class="st3" width="16.2" height="16.2"/>
	<rect x="278" y="190.1" class="st3" width="16.2" height="16.2"/>
	<rect x="197" y="141.5" class="st3" width="16.2" height="16.2"/>
	<rect x="213.2" y="141.5" class="st3" width="16.2" height="16.2"/>
	<rect x="229.4" y="141.5" class="st3" width="16.2" height="16.2"/>
	<rect x="245.6" y="141.5" class="st3" width="16.2" height="16.2"/>
	<rect x="261.8" y="141.6" class="st3" width="16.2" height="16.2"/>
	<rect x="278" y="141.6" class="st3" width="16.2" height="16.2"/>
	<rect x="213.2" y="319.5" class="st3" width="16.2" height="16.2"/>
	<rect x="197" y="303.2" class="st3" width="16.2" height="16.2"/>
	<rect x="294.2" y="303.4" class="st3" width="16.2" height="16.2"/>
	<rect x="229.4" y="319.5" class="st3" width="16.2" height="16.2"/>
	<rect x="245.6" y="319.5" class="st3" width="16.2" height="16.2"/>
	<rect x="261.8" y="319.5" class="st3" width="16.2" height="16.2"/>
	<rect x="278" y="319.5" class="st3" width="16.2" height="16.2"/>
	<rect x="294.2" y="141.5" class="st3" width="16.2" height="16.2"/>
	<rect x="310.4" y="271" class="st3" width="16.2" height="16.2"/>
	<rect x="310.4" y="254.8" class="st3" width="16.2" height="16.2"/>
	<rect x="310.4" y="238.6" class="st3" width="16.2" height="16.2"/>
	<rect x="180.8" y="287" class="st3" width="16.2" height="16.2"/>
	<rect x="180.8" y="270.9" class="st3" width="16.2" height="16.2"/>
	<rect x="180.8" y="254.8" class="st3" width="16.2" height="16.2"/>
	<rect x="180.8" y="238.5" class="st3" width="16.2" height="16.2"/>
	<rect x="213.2" y="254.8" class="st2" width="16.2" height="16.2"/>
	<rect x="197" y="254.8" class="st2" width="16.2" height="16.2"/>
	<rect x="229.4" y="222.4" class="st2" width="16.2" height="16.2"/>
	<rect x="213.2" y="222.4" class="st2" width="16.2" height="16.2"/>
	<rect x="229.4" y="238.6" class="st2" width="16.2" height="16.2"/>
	<rect x="245.6" y="206.3" class="st2" width="16.2" height="16.2"/>
	<rect x="229.4" y="206.3" class="st2" width="16.2" height="16.2"/>
	<rect x="245.6" y="222.4" class="st2" width="16.2" height="16.2"/>
	<rect x="261.8" y="222.4" class="st2" width="16.2" height="16.2"/>
	<rect x="261.8" y="206.3" class="st2" width="16.2" height="16.2"/>
	<rect x="245.6" y="190.1" class="st4" width="16.2" height="16.2"/>
	<rect x="229.4" y="190.1" class="st4" width="16.2" height="16.2"/>
	<rect x="261.8" y="190.1" class="st4" width="16.2" height="16.2"/>
	<rect x="229.4" y="173.9" class="st4" width="16.2" height="16.2"/>
	<rect x="213.2" y="173.9" class="st4" width="16.2" height="16.2"/>
	<rect x="245.6" y="173.9" class="st4" width="16.2" height="16.2"/>
	<rect x="261.8" y="173.9" class="st4" width="16.2" height="16.2"/>
	<rect x="278" y="173.9" class="st4" width="16.2" height="16.2"/>
	<rect x="229.4" y="157.7" class="st5" width="16.2" height="16.2"/>
	<rect x="213.2" y="157.7" class="st5" width="16.2" height="16.2"/>
	<rect x="245.6" y="157.7" class="st5" width="16.2" height="16.2"/>
	<rect x="261.8" y="157.7" class="st5" width="16.2" height="16.2"/>
	<rect x="278" y="157.7" class="st5" width="16.2" height="16.2"/>
	<rect x="294.2" y="254.8" class="st6" width="16.2" height="16.2"/>
	<rect x="294.2" y="238.6" class="st6" width="16.2" height="16.2"/>
	<rect x="278" y="222.4" class="st2" width="16.2" height="16.2"/>
	<rect x="-58.8" y="190.1" class="st1" width="16.2" height="16.2"/>
</g>
<g id="Слой_4" class="st0">
	<g class="st3">
		<path d="M176.2,172h52 M297.6,172h52 M124.2,189.3h34.7 M176.2,189.3h156.1 M349.6,189.3h52 M124.2,206.7h17.3 M158.9,206.7h34.7
			 M314.9,206.7h34.7 M384.3,206.7h17.3 M124.2,224h17.3 M176.2,224h17.3 M314.9,224h17.3 M384.3,224h17.3 M124.2,241.3h17.3
			 M176.2,241.3h17.3 M314.9,241.3h17.3 M384.3,241.3h17.3 M124.2,258.7h17.3 M384.3,258.7h17.3 M124.2,276h17.3 M176.2,276h17.3
			 M314.9,276h34.7 M384.3,276h17.3 M124.2,293.4h17.3 M158.9,293.4h17.3 M193.5,293.4h17.3 M297.6,293.4h17.3 M349.6,293.4h17.3
			 M384.3,293.4h17.3 M124.2,310.7h34.7 M193.5,310.7h121.4 M366.9,310.7h34.7 M124.2,328h17.3 M384.3,328h17.3"/>
		<path d="M401.6,336.7h-17.3v-17.3h-17.3V302h-17.3v-17.3h-34.7v-17.3h34.7v17.3h17.3V302h17.3V198h-34.7v-17.3h-17.3V198h17.3
			v17.3h-17.3V250h-17.3v-52H193.5v52h-17.3v-34.7h-17.3V198h-17.3v104h17.3v17.3h-17.3v17.3h-17.3V180.6h34.7V198h17.3v-34.7h52
			v17.3h69.4v-17.3h52v17.3h52V336.7z M314.9,319.4H193.5v-34.7h-17.3v-17.3h17.3v17.3h17.3V302h86.7v-17.3h17.3V319.4z M176.2,302
			h-17.3v-17.3h17.3V302z"/>
	</g>
	<g class="st3">
		<path d="M141.5,206.7h17.3 M141.5,224h34.7 M141.5,241.3h34.7 M141.5,258.7h34.7 M141.5,276h34.7 M141.5,293.4h17.3"/>
		<polygon class="st7" points="158.9,302 141.5,302 141.5,198 158.9,198 158.9,215.3 176.2,215.3 176.2,284.7 158.9,284.7 		"/>
	</g>
	<g class="st3">
		<path d="M193.5,206.7h17.3 M262.9,206.7h34.7"/>
		<path class="st8" d="M297.6,215.3h-34.7V198h34.7V215.3z M210.9,215.3h-17.3V198h17.3V215.3z"/>
	</g>
	<g class="st3">
		<path d="M210.9,206.7h52 M297.6,206.7h17.3 M210.9,224h52 M297.6,224h17.3 M210.9,241.3h52 M297.6,241.3h17.3 M176.2,258.7h138.7
			 M193.5,276h17.3 M280.2,276h34.7 M280.2,293.4h17.3"/>
		<polygon class="st9" points="297.6,302 280.2,302 280.2,267.3 210.9,267.3 210.9,284.7 193.5,284.7 193.5,267.3 176.2,267.3 
			176.2,250 210.9,250 210.9,198 262.9,198 262.9,250 297.6,250 297.6,198 314.9,198 314.9,284.7 297.6,284.7 		"/>
	</g>
	<g class="st3">
		<path d="M349.6,206.7h34.7 M332.3,224h52 M332.3,241.3h52 M314.9,258.7h69.4 M349.6,276h34.7 M366.9,293.4h17.3"/>
		<polygon class="st10" points="384.3,302 366.9,302 366.9,284.7 349.6,284.7 349.6,267.3 314.9,267.3 314.9,250 332.3,250 
			332.3,215.3 349.6,215.3 349.6,198 384.3,198 		"/>
	</g>
	<g class="st3">
		<path d="M193.5,224h17.3 M262.9,224h34.7 M193.5,241.3h17.3 M262.9,241.3h34.7 M210.9,276h17.3 M262.9,276h17.3"/>
		<path class="st11" d="M280.2,284.7h-17.3v-17.3h17.3V284.7z M228.2,284.7h-17.3v-17.3h17.3V284.7z M297.6,250h-34.7v-34.7h34.7
			V250z M210.9,250h-17.3v-34.7h17.3V250z"/>
	</g>
	<g class="st3">
		<path d="M228.2,276h34.7 M210.9,293.4h69.4"/>
		<polygon class="st12" points="280.2,302 210.9,302 210.9,284.7 228.2,284.7 228.2,267.3 262.9,267.3 262.9,284.7 280.2,284.7 		
			"/>
	</g>
</g>
<g id="Слой_5" class="st0">
	<g class="st3">
		<path d="M164.7,139.2h170.5 M164.7,156.2h17.1 M318.2,156.2h17.1 M164.7,173.3h17.1 M318.2,173.3h17.1 M164.7,190.3h34.1
			 M250,190.3h34.1 M318.2,190.3h17.1 M164.7,207.4h34.1 M250,207.4h34.1 M318.2,207.4h17.1 M164.7,224.4h17.1 M215.9,224.4h17.1
			 M318.2,224.4h17.1 M164.7,241.5h17.1 M318.2,241.5h17.1 M164.7,258.5h17.1 M318.2,258.5h17.1 M164.7,275.6h68.2 M267,275.6h68.2
			 M215.9,292.6h17.1 M267,292.6h17.1 M198.8,309.7h34.1 M267,309.7h34.1 M181.8,326.7h34.1 M284.1,326.7h34.1 M181.8,343.8h17.1
			 M215.9,343.8h68.2 M301.2,343.8h17.1 M181.8,360.8h51.2 M267,360.8h51.2"/>
		<path d="M318.2,369.4h-51.2v-17.1H233v17.1h-51.2v-51.2h17.1v-17.1h17.1v-17.1h-51.2V130.6h170.5v153.5h-51.2v17.1h17.1v17.1h17.1
			V369.4z M284.1,352.3h17.1v-17.1h-17.1v-17.1h-17.1v-51.2h51.2V147.7H181.8v34.1h17.1v34.1h-17.1v51.2H233v51.2h-17.1v17.1h68.2
			V352.3z M198.8,352.3h17.1v-17.1h-17.1V352.3z M233,232.9h-17.1v-17.1H233V232.9z M284.1,215.9H250v-34.1h34.1V215.9z"/>
	</g>
	<g class="st3">
		<path d="M181.8,156.2h119.4 M181.8,173.3h119.4 M198.8,190.3H250 M284.1,190.3h17.1 M198.8,207.4H250 M284.1,207.4h17.1
			 M198.8,224.4h17.1 M232.9,224.4H250 M284.1,224.4h17.1 M181.8,241.5h119.4 M181.8,258.5h119.4 M232.9,292.6H267 M232.9,309.7H267
			 M215.9,326.7h68.2 M198.8,343.8h17.1 M284.1,343.8h17.1"/>
		<path class="st13" d="M301.2,352.3h-17.1v-17.1h-68.2v-17.1H233v-34.1h34.1v34.1h17.1v17.1h17.1V352.3z M215.9,352.3h-17.1v-17.1
			h17.1V352.3z M301.2,267.1H181.8v-34.1h17.1v-51.2h-17.1v-34.1h119.4V267.1z M250,232.9h34.1v-51.2H250V232.9z M215.9,232.9H233
			v-17.1h-17.1V232.9z"/>
	</g>
	<g class="st3">
		<path d="M301.2,156.2h17.1 M301.2,173.3h17.1 M301.2,190.3h17.1 M301.2,207.4h17.1 M301.2,224.4h17.1 M301.2,241.5h17.1
			 M301.2,258.5h17.1"/>
		<rect x="301.2" y="147.7" class="st14" width="17.1" height="119.4"/>
	</g>
	<g class="st3">
		<path d="M181.8,224.4h17.1 M250,224.4h34.1 M232.9,275.6H267"/>
		<path class="st15" d="M267.1,284.1H233v-17.1h34.1V284.1z M284.1,232.9H250v-17.1h34.1V232.9z M198.8,232.9h-17.1v-17.1h17.1
			V232.9z"/>
	</g>
</g>
<g id="Слой_6" class="st0">
	<g class="st3">
		<path d="M166.5,127.3h33.4 M300.1,127.3h33.4 M166.5,144h16.7 M316.8,144h16.7 M166.5,160.7h16.7 M316.8,160.7h16.7 M166.5,177.4
			h33.4 M233.3,177.4h33.4 M316.8,177.4h16.7 M166.5,194.1h33.4 M233.3,194.1h33.4 M316.8,194.1h16.7 M166.5,210.8h16.7
			 M316.8,210.8h16.7 M166.5,227.5h66.8 M316.8,227.5h16.7 M183.2,244.2H250 M316.8,244.2h16.7 M166.5,260.8h100.2 M316.8,260.8
			h16.7 M166.5,277.5h16.7 M316.8,277.5h16.7 M166.5,294.2h16.7 M316.8,294.2h16.7 M166.5,310.9h16.7 M316.8,310.9h16.7
			 M166.5,327.6h16.7 M316.8,327.6h16.7 M166.5,344.3h16.7 M199.9,344.3h100.2 M316.8,344.3h16.7 M166.5,361h50.1 M283.4,361h50.1"
			/>
		<path d="M333.5,369.4h-50.1v-16.7h-66.8v16.7h-50.1V252.5h16.7v-16.7h-16.7V118.9h33.4v16.7h-16.7V169h16.7v33.4h-16.7v16.7h50.1
			v16.7H250v16.7h16.7v16.7h-83.5v83.5h16.7V336h100.2v16.7h16.7v-217h-16.7v-16.7h33.4V369.4z M266.7,202.4h-33.4V169h33.4V202.4z"
			/>
	</g>
	<g class="st3">
		<path d="M199.9,127.3h16.7 M283.4,127.3h16.7 M199.9,144h100.2 M199.9,160.7h83.5 M216.6,177.4h16.7 M266.7,177.4h16.7
			 M216.6,194.1h16.7"/>
		<polygon class="st16" points="233.3,202.4 216.6,202.4 216.6,169 199.9,169 199.9,118.9 216.6,118.9 216.6,135.6 283.4,135.6 
			283.4,118.9 300.1,118.9 300.1,152.3 283.4,152.3 283.4,185.7 266.7,185.7 266.7,169 233.3,169 		"/>
	</g>
	<g class="st3">
		<path d="M183.2,144h16.7 M183.2,160.7h16.7 M283.4,160.7h16.7 M199.9,177.4h16.7 M283.4,177.4h16.7 M199.9,194.1h16.7
			 M266.7,194.1h33.4 M183.2,210.8h116.9 M233.3,227.5h66.8 M250,244.2h50.1 M266.7,260.8h33.4 M183.2,277.5h116.9"/>
		<polygon class="st17" points="300.1,285.9 183.2,285.9 183.2,269.2 266.7,269.2 266.7,252.5 250,252.5 250,235.8 233.3,235.8 
			233.3,219.1 183.2,219.1 183.2,202.4 199.9,202.4 199.9,169 183.2,169 183.2,135.6 199.9,135.6 199.9,169 216.6,169 216.6,202.4 
			266.7,202.4 266.7,185.7 283.4,185.7 283.4,152.3 300.1,152.3 		"/>
	</g>
	<g class="st3">
		<path d="M300.1,144h16.7 M300.1,160.7h16.7 M300.1,177.4h16.7 M300.1,194.1h16.7 M300.1,210.8h16.7 M300.1,227.5h16.7
			 M300.1,244.2h16.7 M300.1,260.8h16.7 M300.1,277.5h16.7"/>
		<rect x="300.1" y="135.6" class="st18" width="16.7" height="150.2"/>
	</g>
	<g class="st3">
		<path d="M183.2,294.2h116.9"/>
		<rect x="183.2" y="285.9" class="st19" width="116.9" height="16.7"/>
	</g>
	<g class="st3">
		<path d="M300.1,294.2h16.7"/>
		<rect x="300.1" y="285.9" class="st20" width="16.7" height="16.7"/>
	</g>
	<g class="st3">
		<path d="M183.2,310.9h116.9 M183.2,327.6h116.9 M183.2,344.3h16.7"/>
		<polygon class="st21" points="199.9,352.7 183.2,352.7 183.2,302.6 300.1,302.6 300.1,336 199.9,336 		"/>
	</g>
	<g class="st3">
		<path d="M300.1,310.9h16.7 M300.1,327.6h16.7 M300.1,344.3h16.7"/>
		<rect x="300.1" y="302.6" class="st22" width="16.7" height="50.1"/>
	</g>
</g>
<g id="Слой_7" class="st0">
	<g class="st3">
		<path d="M193.4,151.8h121.3 M193.4,169.2h17.3 M297.4,169.2h17.3 M193.4,186.5h17.3 M297.4,186.5h17.3 M210.8,203.8h17.3
			 M280.1,203.8h17.3 M210.8,221.2h17.3 M280.1,221.2h17.3 M210.8,238.5h17.3 M280.1,238.5h17.3 M210.8,255.8h17.3 M280.1,255.8
			h17.3 M210.8,273.2h17.3 M280.1,273.2h17.3 M210.8,290.5h17.3 M280.1,290.5h17.3 M210.8,307.8h17.3 M280.1,307.8h17.3
			 M228.1,325.2h52"/>
		<path d="M280.1,333.8h-52v-17.3h-17.3V195.2h-17.3v-52h121.3v52h-17.3v-34.7h-86.7v34.7h17.3v121.3h52V333.8z M297.4,316.5h-17.3
			V195.2h17.3V316.5z"/>
	</g>
	<g class="st3">
		<path d="M210.8,169.2h86.7"/>
		<rect x="210.8" y="160.5" class="st23" width="86.7" height="17.3"/>
	</g>
	<g class="st3">
		<path d="M210.8,186.5h86.7"/>
		<rect x="210.8" y="177.8" class="st24" width="86.7" height="17.3"/>
	</g>
	<g class="st3">
		<path d="M245.4,203.8h34.7 M228.1,221.2h52 M228.1,238.5h17.3 M262.8,238.5h17.3 M262.8,255.8h17.3"/>
		<polygon class="st25" points="280.1,264.5 262.8,264.5 262.8,229.8 245.4,229.8 245.4,247.2 228.1,247.2 228.1,212.5 245.4,212.5 
			245.4,195.2 280.1,195.2 		"/>
	</g>
	<g class="st3">
		<path d="M245.4,238.5h17.3 M228.1,255.8h34.7 M228.1,273.2h52 M228.1,290.5h52 M228.1,307.8h52"/>
		<polygon class="st26" points="280.1,316.5 228.1,316.5 228.1,247.2 245.4,247.2 245.4,229.8 262.8,229.8 262.8,264.5 280.1,264.5 
					"/>
	</g>
	<rect x="228.1" y="195.2" class="st27" width="17.3" height="17.3"/>
</g>
<g id="Слой_8">
	<g>
		<path d="M159,90.4h91.1 M143.8,105.6H159 M250.1,105.6h15.2 M128.7,120.7h15.2 M159,120.7h30.4 M265.3,120.7h15.2 M128.7,135.9
			H159 M189.4,135.9h15.2 M265.3,135.9h15.2 M204.5,151.1h15.2 M250.1,151.1h15.2 M174.2,166.3H326 M174.2,181.4h15.2 M310.8,181.4
			H326 M174.2,196.6h15.2 M310.8,196.6h45.5 M174.2,211.8h15.2 M341.1,211.8h15.2 M174.2,227h15.2 M250.1,227h15.2 M280.4,227h15.2
			 M310.8,227H326 M341.1,227h15.2 M174.2,242.1h15.2 M250.1,242.1h15.2 M280.4,242.1h15.2 M310.8,242.1H326 M341.1,242.1h15.2
			 M174.2,257.3h15.2 M250.1,257.3h15.2 M280.4,257.3h15.2 M310.8,257.3H326 M341.1,257.3h15.2 M174.2,272.5h15.2 M341.1,272.5h15.2
			 M174.2,287.7h15.2 M310.8,287.7h45.5 M174.2,302.9h15.2 M310.8,302.9H326 M174.2,318h15.2 M310.8,318H326 M174.2,333.2h15.2
			 M310.8,333.2H326 M174.2,348.4h15.2 M310.8,348.4H326 M174.2,363.6h15.2 M204.5,363.6h91.1 M310.8,363.6H326 M174.2,378.7h45.5
			 M280.4,378.7H326"/>
		<path d="M326,386.3h-45.5v-15.2h-60.7v15.2h-45.5V158.7h30.4v-15.2h-15.2v-15.2H159v-15.2h-15.2V98H159v15.2h30.4v15.2h15.2v15.2
			h15.2v15.2h30.3v-15.2h15.2v15.2H326V189h30.4v106.2H326V386.3z M295.6,371.2h15.2v-91.1h30.4v-75.9h-30.4v-30.4H189.4v197.3h15.2
			V356h91.1V371.2z M326,264.9h-15.2v-45.5H326V264.9z M295.6,264.9h-15.2v-45.5h15.2V264.9z M265.2,264.9h-15.2v-45.5h15.2V264.9z
			 M280.4,143.5h-15.2v-30.4h-15.2V98H159V82.8h91.1V98h15.2v15.2h15.2V143.5z M159,143.5h-30.4v-30.4h15.2v15.2H159V143.5z"/>
	</g>
	<g>
		<path d="M159,105.6h30.4 M143.8,120.7H159 M189.4,120.7h30.4 M204.5,135.9h30.4 M219.7,151.1h30.4"/>
		<path class="st28" d="M250.1,158.7h-30.3v-15.2h-15.2v-15.2h-15.2v-15.2H159V98h30.4v15.2h30.4v15.2h15.2v15.2h15.2V158.7z
			 M159,128.3h-15.2v-15.2H159V128.3z"/>
	</g>
	<g>
		<path d="M189.4,105.6h60.7 M219.7,120.7h45.5 M234.9,135.9h30.4"/>
		<polygon class="st29" points="265.2,143.5 234.9,143.5 234.9,128.3 219.7,128.3 219.7,113.1 189.4,113.1 189.4,98 250.1,98 
			250.1,113.1 265.2,113.1 		"/>
	</g>
	<g>
		<path d="M189.4,181.4h91.1 M189.4,196.6h30.4 M189.4,211.8h30.4 M189.4,227h30.4 M189.4,242.1h30.4 M189.4,257.3h30.4
			 M189.4,272.5h30.4 M189.4,287.7h30.4 M189.4,302.9h106.2 M189.4,333.2h106.2 M189.4,348.4h106.2 M189.4,363.6h15.2"/>
		<path class="st30" d="M204.5,371.2h-15.2v-45.5h106.2V356h-91.1V371.2z M295.6,310.4H189.4V173.9h91.1V189h-60.7v106.2h75.9V310.4
			z"/>
	</g>
	<g>
		<path d="M280.4,181.4h30.4 M234.9,211.8h106.2 M234.9,227h15.2 M265.3,227h15.2 M295.6,227h15.2 M326,227h15.2 M234.9,242.1h15.2
			 M265.3,242.1h15.2 M295.6,242.1h15.2 M326,242.1h15.2 M234.9,257.3h15.2 M265.3,257.3h15.2 M295.6,257.3h15.2 M326,257.3h15.2
			 M234.9,272.5h106.2 M295.6,302.9h15.2 M295.6,333.2h15.2 M295.6,348.4h15.2 M295.6,363.6h15.2"/>
		<path class="st31" d="M310.8,371.2h-15.2v-45.5h15.2V371.2z M310.8,310.4h-15.2v-15.2h15.2V310.4z M341.1,280.1H234.9v-75.9h106.2
			V280.1z M310.8,264.9H326v-45.5h-15.2V264.9z M280.4,264.9h15.2v-45.5h-15.2V264.9z M250.1,264.9h15.2v-45.5h-15.2V264.9z
			 M310.8,189h-30.4v-15.2h30.4V189z"/>
	</g>
	<g>
		<path d="M219.7,196.6h91.1 M219.7,211.8h15.2 M219.7,227h15.2 M219.7,242.1h15.2 M219.7,257.3h15.2 M219.7,272.5h15.2
			 M219.7,287.7h91.1 M189.4,318h106.2"/>
		<path class="st32" d="M295.6,325.6H189.4v-15.2h106.2V325.6z M310.8,295.3h-91.1V189h91.1v15.2h-75.9v75.9h75.9V295.3z"/>
	</g>
	<g>
		<path d="M295.6,318h15.2"/>
		<rect x="295.6" y="310.4" class="st33" width="15.2" height="15.2"/>
	</g>
</g>
</svg>
