<?xml version="1.0" encoding="utf-8"?>
<!-- Generator: Adobe Illustrator 24.1.2, SVG Export Plug-In . SVG Version: 6.00 Build 0)  -->
<svg version="1.1" xmlns="http://www.w3.org/2000/svg" xmlns:xlink="http://www.w3.org/1999/xlink" x="0px" y="0px"
	 viewBox="0 0 500 500" style="enable-background:new 0 0 500 500;" xml:space="preserve">
<style type="text/css">
	.st0{display:none;}
	.st1{display:inline;}
	.st2{fill:#FF0000;}
	.st3{fill:#E69191;}
	.st4{fill:#AABABC;}
	.st5{fill:#5C4637;}
	.st6{fill:#C97F7F;}
	.st7{fill:#251E48;}
	.st8{fill:#554B8A;}
	.st9{fill:#2B235A;}
	.st10{fill:#5B4D91;}
	.st11{fill:#FFFFFF;}
	.st12{fill:#FF4B52;}
</style>
<g id="Слой_1" class="st0">
	
		<image style="display:inline;overflow:visible;opacity:0.61;" width="30" height="30" xlink:href="../Downloads/hp1.png"  transform="matrix(16.2097 0 0 16.2097 18.6742 -4.6483)">
	</image>
	
		<image style="display:inline;overflow:visible;" width="30" height="30" xlink:href="../Downloads/hp1.png"  transform="matrix(16.2097 0 0 16.2097 434.2781 -8.9256)">
	</image>
</g>
<g id="Слой_2" class="st0">
	<polygon class="st1" points="197.1,141.5 310.5,141.5 310.5,190.4 294.1,190.4 294.1,157.5 213.2,157.5 213.2,190.4 197.1,190.4 	
		"/>
	<rect x="213.2" y="190.4" class="st1" width="16.1" height="31.9"/>
	<rect x="278.2" y="190.4" class="st1" width="15.9" height="31.9"/>
	<rect x="294.1" y="222.3" class="st1" width="16.3" height="16.3"/>
	<rect x="310.4" y="238.6" class="st1" width="16.2" height="64.7"/>
	<rect x="294.1" y="303.4" class="st1" width="16.3" height="16"/>
</g>
<g id="Слой_3">
	<rect x="213.2" y="238.6" class="st2" width="16.2" height="16.2"/>
	<rect x="229.4" y="254.8" class="st2" width="16.2" height="16.2"/>
	<rect x="245.6" y="254.8" class="st2" width="16.2" height="16.2"/>
	<rect x="245.6" y="238.6" class="st2" width="16.2" height="16.2"/>
	<rect x="261.8" y="254.8" class="st2" width="16.2" height="16.2"/>
	<rect x="278" y="254.8" class="st2" width="16.2" height="16.2"/>
	<rect x="278" y="238.6" class="st2" width="16.2" height="16.2"/>
	<rect x="261.8" y="238.6" class="st2" width="16.2" height="16.2"/>
	<rect x="261.8" y="287.1" class="st2" width="16.2" height="16.2"/>
	<rect x="261.8" y="270.9" class="st2" width="16.2" height="16.2"/>
	<rect x="278" y="287.1" class="st2" width="16.2" height="16.2"/>
	<rect x="294.2" y="287.1" class="st2" width="16.2" height="16.2"/>
	<rect x="294.2" y="271" class="st2" width="16.2" height="16.2"/>
	<rect x="278" y="270.9" class="st2" width="16.2" height="16.2"/>
	<rect x="213.2" y="287.1" class="st2" width="16.2" height="16.2"/>
	<rect x="213.2" y="270.9" class="st2" width="16.2" height="16.2"/>
	<rect x="197" y="287.1" class="st2" width="16.2" height="16.2"/>
	<rect x="197" y="270.9" class="st2" width="16.2" height="16.2"/>
	<rect x="229.4" y="287.1" class="st2" width="16.2" height="16.2"/>
	<rect x="245.6" y="287.1" class="st2" width="16.2" height="16.2"/>
	<rect x="261.8" y="303.4" class="st2" width="16.2" height="16.2"/>
	<rect x="278" y="303.4" class="st2" width="16.2" height="16.2"/>
	<rect x="213.2" y="303.3" class="st2" width="16.2" height="16.2"/>
	<rect x="229.4" y="303.4" class="st2" width="16.2" height="16.2"/>
	<rect x="245.6" y="303.4" class="st2" width="16.2" height="16.2"/>
	<rect x="245.6" y="270.9" class="st2" width="16.2" height="16.2"/>
	<rect x="229.4" y="270.9" class="st2" width="16.2" height="16.2"/>
	<rect x="197" y="238.6" class="st3" width="16.2" height="16.2"/>
	<rect x="197" y="222.4" width="16.2" height="16.2"/>
	<rect x="294.2" y="222.4" width="16.2" height="16.2"/>
	<rect x="310.4" y="287.1" width="16.2" height="16.2"/>
	<rect x="213.2" y="206.3" width="16.2" height="16.2"/>
	<rect x="213.2" y="190.1" width="16.2" height="16.2"/>
	<rect x="197" y="173.9" width="16.2" height="16.2"/>
	<rect x="197" y="157.7" width="16.2" height="16.2"/>
	<rect x="294.2" y="173.9" width="16.2" height="16.2"/>
	<rect x="294.2" y="157.7" width="16.2" height="16.2"/>
	<rect x="278" y="206.3" width="16.2" height="16.2"/>
	<rect x="278" y="190.1" width="16.2" height="16.2"/>
	<rect x="197" y="141.5" width="16.2" height="16.2"/>
	<rect x="213.2" y="141.5" width="16.2" height="16.2"/>
	<rect x="229.4" y="141.5" width="16.2" height="16.2"/>
	<rect x="245.6" y="141.5" width="16.2" height="16.2"/>
	<rect x="261.8" y="141.6" width="16.2" height="16.2"/>
	<rect x="278" y="141.6" width="16.2" height="16.2"/>
	<rect x="213.2" y="319.5" width="16.2" height="16.2"/>
	<rect x="197" y="303.2" width="16.2" height="16.2"/>
	<rect x="294.2" y="303.4" width="16.2" height="16.2"/>
	<rect x="229.4" y="319.5" width="16.2" height="16.2"/>
	<rect x="245.6" y="319.5" width="16.2" height="16.2"/>
	<rect x="261.8" y="319.5" width="16.2" height="16.2"/>
	<rect x="278" y="319.5" width="16.2" height="16.2"/>
	<rect x="294.2" y="141.5" width="16.2" height="16.2"/>
	<rect x="310.4" y="271" width="16.2" height="16.2"/>
	<rect x="310.4" y="254.8" width="16.2" height="16.2"/>
	<rect x="310.4" y="238.6" width="16.2" height="16.2"/>
	<rect x="180.8" y="287" width="16.2" height="16.2"/>
	<rect x="180.8" y="270.9" width="16.2" height="16.2"/>
	<rect x="180.8" y="254.8" width="16.2" height="16.2"/>
	<rect x="180.8" y="238.5" width="16.2" height="16.2"/>
	<rect x="213.2" y="254.8" class="st3" width="16.2" height="16.2"/>
	<rect x="197" y="254.8" class="st3" width="16.2" height="16.2"/>
	<rect x="229.4" y="222.4" class="st3" width="16.2" height="16.2"/>
	<rect x="213.2" y="222.4" class="st3" width="16.2" height="16.2"/>
	<rect x="229.4" y="238.6" class="st3" width="16.2" height="16.2"/>
	<rect x="245.6" y="206.3" class="st3" width="16.2" height="16.2"/>
	<rect x="229.4" y="206.3" class="st3" width="16.2" height="16.2"/>
	<rect x="245.6" y="222.4" class="st3" width="16.2" height="16.2"/>
	<rect x="261.8" y="222.4" class="st3" width="16.2" height="16.2"/>
	<rect x="261.8" y="206.3" class="st3" width="16.2" height="16.2"/>
	<rect x="245.6" y="190.1" class="st4" width="16.2" height="16.2"/>
	<rect x="229.4" y="190.1" class="st4" width="16.2" height="16.2"/>
	<rect x="261.8" y="190.1" class="st4" width="16.2" height="16.2"/>
	<rect x="229.4" y="173.9" class="st4" width="16.2" height="16.2"/>
	<rect x="213.2" y="173.9" class="st4" width="16.2" height="16.2"/>
	<rect x="245.6" y="173.9" class="st4" width="16.2" height="16.2"/>
	<rect x="261.8" y="173.9" class="st4" width="16.2" height="16.2"/>
	<rect x="278" y="173.9" class="st4" width="16.2" height="16.2"/>
	<rect x="229.4" y="157.7" class="st5" width="16.2" height="16.2"/>
	<rect x="213.2" y="157.7" class="st5" width="16.2" height="16.2"/>
	<rect x="245.6" y="157.7" class="st5" width="16.2" height="16.2"/>
	<rect x="261.8" y="157.7" class="st5" width="16.2" height="16.2"/>
	<rect x="278" y="157.7" class="st5" width="16.2" height="16.2"/>
	<rect x="294.2" y="254.8" class="st6" width="16.2" height="16.2"/>
	<rect x="294.2" y="238.6" class="st6" width="16.2" height="16.2"/>
	<rect x="278" y="222.4" class="st3" width="16.2" height="16.2"/>
	<rect x="-58.8" y="190.1" class="st2" width="16.2" height="16.2"/>
</g>
<g id="Слой_4" class="st0">
	<g class="st1">
		<path d="M176.2,172h52 M297.6,172h52 M124.2,189.3h34.7 M176.2,189.3h156.1 M349.6,189.3h52 M124.2,206.7h17.3 M158.9,206.7h34.7
			 M314.9,206.7h34.7 M384.3,206.7h17.3 M124.2,224h17.3 M176.2,224h17.3 M314.9,224h17.3 M384.3,224h17.3 M124.2,241.3h17.3
			 M176.2,241.3h17.3 M314.9,241.3h17.3 M384.3,241.3h17.3 M124.2,258.7h17.3 M384.3,258.7h17.3 M124.2,276h17.3 M176.2,276h17.3
			 M314.9,276h34.7 M384.3,276h17.3 M124.2,293.4h17.3 M158.9,293.4h17.3 M193.5,293.4h17.3 M297.6,293.4h17.3 M349.6,293.4h17.3
			 M384.3,293.4h17.3 M124.2,310.7h34.7 M193.5,310.7h121.4 M366.9,310.7h34.7 M124.2,328h17.3 M384.3,328h17.3"/>
		<path d="M401.6,336.7h-17.3v-17.3h-17.3V302h-17.3v-17.3h-34.7v-17.3h34.7v17.3h17.3V302h17.3V198h-34.7v-17.3h-17.3V198h17.3
			v17.3h-17.3V250h-17.3v-52H193.5v52h-17.3v-34.7h-17.3V198h-17.3v104h17.3v17.3h-17.3v17.3h-17.3V180.6h34.7V198h17.3v-34.7h52
			v17.3h69.4v-17.3h52v17.3h52V336.7z M314.9,319.4H193.5v-34.7h-17.3v-17.3h17.3v17.3h17.3V302h86.7v-17.3h17.3V319.4z M176.2,302
			h-17.3v-17.3h17.3V302z"/>
	</g>
	<g class="st1">
		<path d="M141.5,206.7h17.3 M141.5,224h34.7 M141.5,241.3h34.7 M141.5,258.7h34.7 M141.5,276h34.7 M141.5,293.4h17.3"/>
		<polygon class="st7" points="158.9,302 141.5,302 141.5,198 158.9,198 158.9,215.3 176.2,215.3 176.2,284.7 158.9,284.7 		"/>
	</g>
	<g class="st1">
		<path d="M193.5,206.7h17.3 M262.9,206.7h34.7"/>
		<path class="st8" d="M297.6,215.3h-34.7V198h34.7V215.3z M210.9,215.3h-17.3V198h17.3V215.3z"/>
	</g>
	<g class="st1">
		<path d="M210.9,206.7h52 M297.6,206.7h17.3 M210.9,224h52 M297.6,224h17.3 M210.9,241.3h52 M297.6,241.3h17.3 M176.2,258.7h138.7
			 M193.5,276h17.3 M280.2,276h34.7 M280.2,293.4h17.3"/>
		<polygon class="st9" points="297.6,302 280.2,302 280.2,267.3 210.9,267.3 210.9,284.7 193.5,284.7 193.5,267.3 176.2,267.3 
			176.2,250 210.9,250 210.9,198 262.9,198 262.9,250 297.6,250 297.6,198 314.9,198 314.9,284.7 297.6,284.7 		"/>
	</g>
	<g class="st1">
		<path d="M349.6,206.7h34.7 M332.3,224h52 M332.3,241.3h52 M314.9,258.7h69.4 M349.6,276h34.7 M366.9,293.4h17.3"/>
		<polygon class="st10" points="384.3,302 366.9,302 366.9,284.7 349.6,284.7 349.6,267.3 314.9,267.3 314.9,250 332.3,250 
			332.3,215.3 349.6,215.3 349.6,198 384.3,198 		"/>
	</g>
	<g class="st1">
		<path d="M193.5,224h17.3 M262.9,224h34.7 M193.5,241.3h17.3 M262.9,241.3h34.7 M210.9,276h17.3 M262.9,276h17.3"/>
		<path class="st11" d="M280.2,284.7h-17.3v-17.3h17.3V284.7z M228.2,284.7h-17.3v-17.3h17.3V284.7z M297.6,250h-34.7v-34.7h34.7
			V250z M210.9,250h-17.3v-34.7h17.3V250z"/>
	</g>
	<g class="st1">
		<path d="M228.2,276h34.7 M210.9,293.4h69.4"/>
		<polygon class="st12" points="280.2,302 210.9,302 210.9,284.7 228.2,284.7 228.2,267.3 262.9,267.3 262.9,284.7 280.2,284.7 		
			"/>
	</g>
</g>
</svg>
